HIERARCHY
ROOT Hips
{
 OFFSET 0.000000 0.000000 0.000000
 CHANNELS 6 Xposition Yposition Zposition Yrotation Xrotation Zrotation
 JOINT Chest
 {
  OFFSET 0.000000 10.354800 0.006500
  CHANNELS 3 Yrotation Xrotation Zrotation
  JOINT Chest2
  {
   OFFSET 0.000000 10.435800 -0.013200
   CHANNELS 3 Yrotation Xrotation Zrotation
   JOINT Chest3
   {
    OFFSET 0.000000 10.393700 0.000000
    CHANNELS 3 Yrotation Xrotation Zrotation
    JOINT Chest4
    {
     OFFSET 0.000000 10.383100 0.000000
     CHANNELS 3 Yrotation Xrotation Zrotation
     JOINT Neck
     {
      OFFSET 0.000000 15.694000 0.000000
      CHANNELS 3 Yrotation Xrotation Zrotation
      JOINT Head
      {
       OFFSET 0.000000 9.711000 -0.028000
       CHANNELS 3 Yrotation Xrotation Zrotation
       End Site
       {
        OFFSET 0.000000 18.578700 -0.014800
       }
      }
     }
     JOINT RightCollar
     {
      OFFSET -3.157200 10.367500 0.000000
      CHANNELS 3 Yrotation Xrotation Zrotation
      JOINT RightShoulder
      {
       OFFSET -14.482500 0.000000 0.000000
       CHANNELS 3 Yrotation Xrotation Zrotation
       JOINT RightElbow
       {
        OFFSET 0.000000 -31.707800 0.000000
        CHANNELS 3 Yrotation Xrotation Zrotation
        JOINT RightWrist
        {
         OFFSET 0.000000 -25.659300 0.000000
         CHANNELS 3 Yrotation Xrotation Zrotation
         End Site
         {
          OFFSET 0.000000 -18.994300 0.000000
         }
        }
       }
      }
     }
     JOINT LeftCollar
     {
      OFFSET 3.157200 10.367500 0.000000
      CHANNELS 3 Yrotation Xrotation Zrotation
      JOINT LeftShoulder
      {
       OFFSET 14.482500 0.000000 0.000000
       CHANNELS 3 Yrotation Xrotation Zrotation
       JOINT LeftElbow
       {
        OFFSET 0.000000 -31.707800 0.000000
        CHANNELS 3 Yrotation Xrotation Zrotation
        JOINT LeftWrist
        {
         OFFSET 0.000000 -25.659300 0.000000
         CHANNELS 3 Yrotation Xrotation Zrotation
         End Site
         {
          OFFSET 0.000000 -18.994300 0.000000
         }
        }
       }
      }
     }
    }
   }
  }
 }
 JOINT RightHip
 {
  OFFSET -8.365600 -0.032100 -0.003200
  CHANNELS 3 Yrotation Xrotation Zrotation
  JOINT RightKnee
  {
   OFFSET 0.000000 -43.980000 0.003100
   CHANNELS 3 Yrotation Xrotation Zrotation
   JOINT RightAnkle
   {
    OFFSET 0.000000 -42.882800 0.005200
    CHANNELS 3 Yrotation Xrotation Zrotation
    JOINT RightToe
    {
     OFFSET 0.000000 -4.915500 10.826300
     CHANNELS 3 Yrotation Xrotation Zrotation
     End Site
     {
      OFFSET 0.000000 -1.517500 6.175900
     }
    }
   }
  }
 }
 JOINT LeftHip
 {
  OFFSET 8.365600 -0.032100 -0.003200
  CHANNELS 3 Yrotation Xrotation Zrotation
  JOINT LeftKnee
  {
   OFFSET 0.000000 -43.980000 0.003100
   CHANNELS 3 Yrotation Xrotation Zrotation
   JOINT LeftAnkle
   {
    OFFSET 0.000000 -42.882800 0.005200
    CHANNELS 3 Yrotation Xrotation Zrotation
    JOINT LeftToe
    {
     OFFSET 0.000000 -4.915500 10.826300
     CHANNELS 3 Yrotation Xrotation Zrotation
     End Site
     {
      OFFSET 0.000000 -1.517500 6.175900
     }
    }
   }
  }
 }
}
MOTION
Frames: 8
Frame Time: 0.008333
6.989732 126.901604 48.487585 173.490522 -27.007720 -3.046158 0.511710 19.227415 -0.380574 0.061416 2.294269 -0.048068 0.135412 3.746511 -0.115517 0.431529 16.676209 -0.323713 1.687264 18.865263 -9.678045 4.107957 -5.238989 -11.082139 4.197192 6.382604 -6.282773 -2.839146 -4.436986 -1.295752 152.808063 -77.002576 -142.215327 -13.306647 -26.999693 -25.189261 -2.745886 7.728774 -0.503793 11.021859 -5.999952 2.405087 80.753409 -57.243424 -116.273146 25.763146 0.169438 34.389404 6.473613 -54.530737 -3.039913 -92.400595 78.602783 -86.468287 5.025051 4.131518 -16.775128 0.001271 0.001077 0.000577 -14.120679 -55.525312 -1.996111 108.622890 84.707819 102.100198 -10.322410 -22.349663 -1.348631 0.007284 -0.004047 0.003307
6.991765 126.899140 48.480800 173.483571 -26.959415 -3.025409 0.502625 19.188149 -0.395878 0.044700 2.315613 -0.028361 0.103086 3.757888 -0.087326 0.456754 16.634998 -0.377295 1.671598 18.864121 -9.664843 4.059432 -5.244756 -11.022992 4.162889 6.419369 -6.268580 -2.951562 -4.408304 -1.265765 154.166715 -77.197374 -143.507124 -13.266374 -27.449181 -25.903141 -2.780422 7.732764 -0.493070 11.007228 -6.009282 2.359902 80.772942 -57.244578 -116.235923 25.786993 0.147312 34.459083 6.494373 -54.580047 -3.074643 -92.430605 78.607098 -86.504096 5.013472 4.128799 -16.774069 -0.002549 -0.000166 -0.001157 -14.131582 -55.572904 -2.000291 108.576919 84.696891 102.045297 -10.334086 -22.328920 -1.334472 0.004693 -0.004681 0.002131
6.995569 126.898734 48.470619 173.480863 -26.935943 -3.014473 0.479680 19.200582 -0.387254 0.052219 2.294971 -0.041448 0.095008 3.759299 -0.079785 0.431930 16.622144 -0.366106 1.657349 18.861240 -9.659925 4.054937 -5.251340 -11.014771 4.157074 6.456294 -6.285933 -3.059994 -4.376554 -1.229687 155.571684 -77.387431 -144.841991 -13.224212 -27.891119 -26.649348 -2.765831 7.728773 -0.530909 10.965635 -6.017118 2.333120 80.791457 -57.243555 -116.199003 25.829221 0.126365 34.549099 6.501791 -54.604486 -3.092710 -92.460926 78.608911 -86.538825 5.019265 4.127730 -16.774240 -0.005217 -0.004829 -0.002368 -14.152034 -55.597373 -1.998501 108.549667 84.683895 102.011854 -10.355251 -22.296869 -1.323422 0.003248 -0.006776 0.001474
6.997957 126.895325 48.466544 173.469816 -26.877079 -2.996239 0.448647 19.204012 -0.370420 0.070436 2.247755 -0.071362 0.099088 3.749466 -0.085829 0.405644 16.623507 -0.338240 1.647096 18.856027 -9.654056 4.051044 -5.258154 -11.002815 4.149792 6.491159 -6.301670 -3.165999 -4.345661 -1.185821 157.044379 -77.576237 -146.235832 -13.176660 -28.322974 -27.418536 -2.786498 7.727200 -0.554725 10.972546 -6.025654 2.292758 80.681727 -57.154905 -116.096313 25.791915 0.075091 34.673333 6.529006 -54.665716 -3.127308 -92.486772 78.609896 -86.564380 5.029619 4.125707 -16.779639 -0.005112 -0.005139 -0.002321 -14.203511 -55.657344 -1.979383 108.401218 84.650094 101.855612 -10.364520 -22.277788 -1.338707 0.001357 -0.006866 0.000616
7.000744 126.892326 48.462244 173.463313 -26.823074 -2.982459 0.428503 19.193357 -0.358218 0.057072 2.265285 -0.050483 0.108966 3.711484 -0.110256 0.390544 16.610180 -0.331544 1.631001 18.855153 -9.589297 4.058493 -5.267222 -11.048208 4.138735 6.521772 -6.317093 -3.269932 -4.311981 -1.135041 158.615826 -77.763336 -147.717370 -13.126587 -28.740493 -28.197216 -2.810440 7.731100 -0.577129 11.002467 -6.038000 2.258798 80.562258 -57.062991 -116.011565 25.787339 0.025753 34.816126 6.551566 -54.722145 -3.159806 -92.510005 78.605295 -86.579563 5.047163 4.125106 -16.789295 -0.001793 -0.008026 -0.000814 -14.228041 -55.710133 -1.968773 108.327415 84.639594 101.778383 -10.379272 -22.258055 -1.337436 -0.000912 -0.006055 -0.000414
7.002371 126.889392 48.457994 173.450079 -26.771557 -2.959414 0.415731 19.175048 -0.358975 0.056080 2.261576 -0.049242 0.091623 3.729775 -0.080028 0.386757 16.573264 -0.354341 1.630039 18.850812 -9.577152 4.049088 -5.275776 -11.030943 4.125446 6.546428 -6.332309 -3.366837 -4.273195 -1.078709 160.322991 -77.950480 -149.331476 -13.078749 -29.139630 -28.969967 -2.837257 7.736369 -0.595986 11.000945 -6.053928 2.207164 80.456560 -56.978207 -115.918908 25.801917 -0.020823 34.980208 6.590934 -54.775995 -3.202150 -92.522649 78.602719 -86.585726 5.036381 4.127727 -16.792309 -0.001794 -0.007549 -0.000815 -14.235235 -55.764101 -1.969555 108.281591 84.647818 101.736523 -10.410083 -22.218788 -1.329177 -0.002901 -0.002784 -0.001317
7.005655 126.886807 48.453886 173.435441 -26.723966 -2.944947 0.411211 19.158868 -0.348775 0.055516 2.258342 -0.047983 0.090748 3.724695 -0.077943 0.372701 16.576616 -0.308318 1.621214 18.832732 -9.605380 4.038977 -5.284545 -11.011641 4.109816 6.554319 -6.390087 -3.454238 -4.231500 -1.014964 162.181113 -78.139122 -151.092705 -13.033829 -29.521210 -29.728806 -2.860745 7.727618 -0.650900 10.972323 -6.063234 2.131074 80.357661 -56.894368 -115.832306 25.824502 -0.065975 35.167973 6.619535 -54.826163 -3.228525 -92.530758 78.602074 -86.586254 5.029285 4.128176 -16.797015 -0.002756 -0.007209 -0.001251 -14.255086 -55.814649 -1.958458 108.289913 84.642677 101.734374 -10.346985 -22.181355 -1.317722 0.000837 0.001570 0.000380
7.010001 126.884604 48.449612 173.413361 -26.681546 -2.932905 0.423397 19.131141 -0.340976 0.055262 2.256794 -0.047382 0.090326 3.722294 -0.076941 0.371428 16.572030 -0.304115 1.620037 18.831798 -9.583297 4.029652 -5.291810 -10.978733 4.088693 6.576150 -6.386701 -3.532705 -4.189410 -0.944530 164.173164 -78.325302 -152.979389 -12.993442 -29.886033 -30.470691 -2.908762 7.761352 -0.632628 10.997577 -6.084613 2.059098 80.229368 -56.763340 -115.764364 25.858618 -0.109846 35.371520 6.646986 -54.870593 -3.243793 -92.531405 78.603726 -86.579459 5.047098 4.125828 -16.807808 -0.000555 -0.007114 -0.000252 -14.277523 -55.857272 -1.939405 108.359955 84.659983 101.811471 -10.301751 -22.183411 -1.334131 0.004611 0.002210 0.002093
